<?xml version="1.0" encoding="UTF-8"?>
<svg version="1.1" xmlns="http://www.w3.org/2000/svg" width="350" height="350">
<path d="M0 0 C4.00387391 0.39698467 5.97056566 1.47143492 8.76953125 4.30859375 C9.76049805 5.30536133 9.76049805 5.30536133 10.77148438 6.32226562 C11.44501953 7.02029297 12.11855469 7.71832031 12.8125 8.4375 C13.50537109 9.13166016 14.19824219 9.82582031 14.91210938 10.54101562 C20 15.71913485 20 15.71913485 20 18 C21.98 18.99 21.98 18.99 24 20 C24 20.66 24 21.32 24 22 C24.556875 22.20625 25.11375 22.4125 25.6875 22.625 C28.29091865 24.17297866 29.79396189 26.07734507 31.65625 28.43359375 C33.36539984 30.42594575 35.37209259 31.97325011 37.41730404 33.60707664 C39.19436422 35.17105905 40.66827069 36.85546628 42.19813538 38.66177368 C45.93528519 42.98158812 49.89793047 47.01853213 53.95483398 51.03662109 C54.71663467 51.79535522 55.47843536 52.55408936 56.26332092 53.33581543 C57.90291824 54.96830625 59.5436421 56.59966628 61.18539238 58.22999191 C63.78049315 60.80760509 66.37194989 63.38883104 68.9624176 65.97109985 C76.32282209 73.3071212 83.68895765 80.63736871 91.05932617 87.96337891 C95.57787601 92.45523468 100.09161501 96.95187759 104.60237312 101.45155716 C106.32257737 103.16553676 108.04467872 104.87761449 109.76867485 106.58778 C112.16727368 108.96728546 114.55976282 111.35277387 116.95092773 113.73974609 C117.66928802 114.44934479 118.38764832 115.15894348 119.1277771 115.89004517 C119.773965 116.53753723 120.42015289 117.1850293 121.08592224 117.85214233 C121.65202933 118.41510702 122.21813643 118.97807171 122.80139828 119.55809593 C124 121 124 121 124 123 C124.8353125 123.309375 124.8353125 123.309375 125.6875 123.625 C128.26710104 125.15881683 129.73942538 127.02351771 131.58203125 129.359375 C133.09820007 131.11361991 134.71193965 132.52611077 136.5 134 C139.76428178 136.70147457 142.28518379 139.74222055 145 143 C146.21534208 144.01675677 147.44517927 145.01638936 148.6875 146 C151.88910293 148.63088241 153.11548235 150.87225097 154 155 C153.319375 155.66 152.63875 156.32 151.9375 157 C149.68763983 159.23714909 147.62023128 161.5855953 145.5625 164 C142.602125 167.42273291 139.52113478 170.16778289 136 173 C134.32092089 174.65416108 132.65556896 176.32230904 131 178 C15 294 15 294 12.34553528 296.63883972 C10.69101561 298.30438113 9.07920071 300.01287922 7.5 301.75 C4.86794823 304.11884659 3.47184157 304.70241358 0 305 C-0.35191406 304.56429688 -0.70382813 304.12859375 -1.06640625 303.6796875 C-4.25054076 299.83877328 -7.55627603 296.57999229 -11.40234375 293.41015625 C-13.56489872 291.50139746 -15.22457717 289.26519465 -17 287 C-17.7425 286.443125 -18.485 285.88625 -19.25 285.3125 C-19.8275 284.879375 -20.405 284.44625 -21 284 C-21 283.34 -21 282.68 -21 282 C-21.66 282 -22.32 282 -23 282 C-23 281.34 -23 280.68 -23 280 C-23.66 280 -24.32 280 -25 280 C-25 279.34 -25 278.68 -25 278 C-25.66 278 -26.32 278 -27 278 C-28.48046875 276.4609375 -28.48046875 276.4609375 -30.1875 274.375 C-33.1100663 270.91212733 -36.15830902 268.02489092 -39.71484375 265.2265625 C-40.13894531 264.82179688 -40.56304687 264.41703125 -41 264 C-41 263.34 -41 262.68 -41 262 C-41.66 262 -42.32 262 -43 262 C-45.125 260.125 -45.125 260.125 -47 258 C-47 257.34 -47 256.68 -47 256 C-47.66 256 -48.32 256 -49 256 C-49 255.34 -49 254.68 -49 254 C-49.99 253.67 -50.98 253.34 -52 253 C-53.6875 251.5625 -53.6875 251.5625 -55 250 C-55 249.34 -55 248.68 -55 248 C-55.66 248 -56.32 248 -57 248 C-57 247.34 -57 246.68 -57 246 C-57.66 246 -58.32 246 -59 246 C-62 242.53846154 -62 242.53846154 -62 240 C-62.99 240 -63.98 240 -65 240 C-65 239.34 -65 238.68 -65 238 C-65.66 238 -66.32 238 -67 238 C-68.48046875 236.4609375 -68.48046875 236.4609375 -70.1875 234.375 C-73.04820273 231.0017547 -76.02264363 228.12988095 -79.421875 225.3125 C-81.4183513 223.65206427 -83.26999342 221.93760737 -85 220 C-85 219.34 -85 218.68 -85 218 C-85.66 218 -86.32 218 -87 218 C-87 217.34 -87 216.68 -87 216 C-87.99 215.67 -88.98 215.34 -90 215 C-90 214.34 -90 213.68 -90 213 C-90.804375 212.6596875 -90.804375 212.6596875 -91.625 212.3125 C-95.69268393 210.0645694 -99.31748039 207.72637313 -101.0625 203.3125 C-101.79240949 200.74722732 -101.79240949 200.74722732 -104.5 199.875 C-105.325 199.58625 -106.15 199.2975 -107 199 C-107.66 198.01 -108.32 197.02 -109 196 C-108.67 194.35 -108.34 192.7 -108 191 C-91.5 191 -75 191 -58 191 C-58 190.34 -58 189.68 -58 189 C-58.99 188.67 -59.98 188.34 -61 188 C-62.46484375 186.2578125 -62.46484375 186.2578125 -63.9375 184.125 C-65.57259049 181.76174921 -66.87576391 180.09256806 -69.19140625 178.3671875 C-69.78824219 177.91601562 -70.38507813 177.46484375 -71 177 C-71 176.34 -71 175.68 -71 175 C-71.66 175 -72.32 175 -73 175 C-75.625 172.625 -75.625 172.625 -78 170 C-78 169.34 -78 168.68 -78 168 C-79.98 167.01 -79.98 167.01 -82 166 C-82 165.34 -82 164.68 -82 164 C-82.66 164 -83.32 164 -84 164 C-85.34423339 162.34211215 -86.67618483 160.67423683 -88 159 C-91.27654957 155.93474635 -93.52832321 155.63148103 -97.96191406 155.65942383 C-99.76332855 155.65976372 -99.76332855 155.65976372 -101.60113525 155.66011047 C-103.53880768 155.68333626 -103.53880768 155.68333626 -105.515625 155.70703125 C-106.85511805 155.71262948 -108.19461726 155.71689851 -109.53411865 155.71989441 C-113.05237921 155.73132546 -116.57026571 155.76077706 -120.08837891 155.79400635 C-123.68126364 155.82474511 -127.27420906 155.83840784 -130.8671875 155.85351562 C-137.91161096 155.88564887 -144.955781 155.93682379 -152 156 C-152.59887695 153.63330078 -152.59887695 153.63330078 -153 151 C-151.41796875 148.8671875 -151.41796875 148.8671875 -149.1875 146.875 C-146.69611878 144.60850452 -144.88421988 142.82632982 -143 140 C-142.34 140 -141.68 140 -141 140 C-141 139.34 -141 138.68 -141 138 C-140.34 138 -139.68 138 -139 138 C-138.67 137.01 -138.34 136.02 -138 135 C-136.41284847 133.43173695 -136.41284847 133.43173695 -134.40061951 131.76753235 C-130.26877962 128.2591811 -126.41523027 124.55684599 -122.59008789 120.71948242 C-121.89802246 120.02916931 -121.20595703 119.3388562 -120.49291992 118.62762451 C-118.23366404 116.37272737 -115.97803501 114.11424333 -113.72265625 111.85546875 C-112.14479424 110.27828104 -110.56678387 108.70124174 -108.9886322 107.12434387 C-105.69644239 103.83362252 -102.40605379 100.5411136 -99.11694336 97.24731445 C-94.89454318 93.01918926 -90.6676315 88.79560713 -86.43938541 84.57332897 C-83.18719595 81.32474415 -79.93738093 78.07379244 -76.68829155 74.82210732 C-75.12964781 73.26279549 -73.57025814 71.70422892 -72.01011848 70.1464138 C-69.83903901 67.97786227 -67.67117098 65.80615144 -65.50415039 63.63354492 C-64.85641159 62.98783035 -64.20867279 62.34211578 -63.54130554 61.67683411 C-60.38902612 58.62878259 -60.38902612 58.62878259 -58 55 C-57.34 55 -56.68 55 -56 55 C-56 54.34 -56 53.68 -56 53 C-54.42578125 51.484375 -54.42578125 51.484375 -52.3125 49.75 C-49.66578059 47.52265515 -47.39372654 45.38662753 -45.3125 42.625 C-43 40 -43 40 -40.1875 39.125 C-39.465625 39.08375 -38.74375 39.0425 -38 39 C-36.93328627 47.68815426 -36.68339286 56.3852651 -36.4375 65.125 C-36.39419844 66.57292622 -36.35058094 68.02084302 -36.30664062 69.46875 C-36.20078894 72.97906578 -36.09919761 76.48948913 -36 80 C-32.28938416 78.91823959 -32.28938416 78.91823959 -29.91064453 76.07446289 C-29.61013184 75.38989014 -29.30961914 74.70531738 -29 74 C-27.36669922 72.39233398 -27.36669922 72.39233398 -25.4296875 70.80859375 C-19.88193202 66.11443553 -14.89127346 60.90639848 -9.828125 55.70117188 C-8.74144531 54.59805664 -8.74144531 54.59805664 -7.6328125 53.47265625 C-6.65658936 52.47117554 -6.65658936 52.47117554 -5.66064453 51.44946289 C-4 50 -4 50 -2 50 C-1.98969254 49.38834488 -1.97938507 48.77668976 -1.96876526 48.14649963 C-1.86093255 41.80417684 -1.74631658 35.46200286 -1.62768555 29.11987305 C-1.5842619 26.75011292 -1.54259251 24.38032 -1.50268555 22.01049805 C-1.44516232 18.61236667 -1.38141697 15.21440157 -1.31640625 11.81640625 C-1.29969376 10.74975235 -1.28298126 9.68309845 -1.26576233 8.5841217 C-1.24581711 7.60318039 -1.22587189 6.62223907 -1.20532227 5.61157227 C-1.18977798 4.74331314 -1.1742337 3.87505402 -1.15821838 2.98048401 C-1 1 -1 1 0 0 Z " fill="#0A3562" transform="translate(174,25)"/>
<path d="M0 0 C4.00387391 0.39698467 5.97056566 1.47143492 8.76953125 4.30859375 C9.76049805 5.30536133 9.76049805 5.30536133 10.77148438 6.32226562 C11.44501953 7.02029297 12.11855469 7.71832031 12.8125 8.4375 C13.50537109 9.13166016 14.19824219 9.82582031 14.91210938 10.54101562 C20 15.71913485 20 15.71913485 20 18 C21.98 18.99 21.98 18.99 24 20 C24 20.66 24 21.32 24 22 C24.556875 22.20625 25.11375 22.4125 25.6875 22.625 C28.29091865 24.17297866 29.79396189 26.07734507 31.65625 28.43359375 C33.36539984 30.42594575 35.37209259 31.97325011 37.41730404 33.60707664 C39.19436422 35.17105905 40.66827069 36.85546628 42.19813538 38.66177368 C45.93528519 42.98158812 49.89793047 47.01853213 53.95483398 51.03662109 C54.71663467 51.79535522 55.47843536 52.55408936 56.26332092 53.33581543 C57.90291824 54.96830625 59.5436421 56.59966628 61.18539238 58.22999191 C63.78049315 60.80760509 66.37194989 63.38883104 68.9624176 65.97109985 C76.32282209 73.3071212 83.68895765 80.63736871 91.05932617 87.96337891 C95.57787601 92.45523468 100.09161501 96.95187759 104.60237312 101.45155716 C106.32257737 103.16553676 108.04467872 104.87761449 109.76867485 106.58778 C112.16727368 108.96728546 114.55976282 111.35277387 116.95092773 113.73974609 C117.66928802 114.44934479 118.38764832 115.15894348 119.1277771 115.89004517 C119.773965 116.53753723 120.42015289 117.1850293 121.08592224 117.85214233 C121.65202933 118.41510702 122.21813643 118.97807171 122.80139828 119.55809593 C124 121 124 121 124 123 C124.8353125 123.309375 124.8353125 123.309375 125.6875 123.625 C128.26710104 125.15881683 129.73942538 127.02351771 131.58203125 129.359375 C133.09820007 131.11361991 134.71193965 132.52611077 136.5 134 C139.76428178 136.70147457 142.28518379 139.74222055 145 143 C146.21534208 144.01675677 147.44517927 145.01638936 148.6875 146 C151.88910293 148.63088241 153.11548235 150.87225097 154 155 C153.319375 155.66 152.63875 156.32 151.9375 157 C149.68763983 159.23714909 147.62023128 161.5855953 145.5625 164 C142.602125 167.42273291 139.52113478 170.16778289 136 173 C134.32092089 174.65416108 132.65556896 176.32230904 131 178 C15 294 15 294 12.34553528 296.63883972 C10.69101561 298.30438113 9.07920071 300.01287922 7.5 301.75 C4.86794823 304.11884659 3.47184157 304.70241358 0 305 C-0.35191406 304.56429688 -0.70382813 304.12859375 -1.06640625 303.6796875 C-4.25054076 299.83877328 -7.55627603 296.57999229 -11.40234375 293.41015625 C-13.56489872 291.50139746 -15.22457717 289.26519465 -17 287 C-17.7425 286.443125 -18.485 285.88625 -19.25 285.3125 C-19.8275 284.879375 -20.405 284.44625 -21 284 C-21 283.34 -21 282.68 -21 282 C-21.66 282 -22.32 282 -23 282 C-23 281.34 -23 280.68 -23 280 C-23.66 280 -24.32 280 -25 280 C-25 279.34 -25 278.68 -25 278 C-25.66 278 -26.32 278 -27 278 C-28.48046875 276.4609375 -28.48046875 276.4609375 -30.1875 274.375 C-33.1100663 270.91212733 -36.15830902 268.02489092 -39.71484375 265.2265625 C-40.13894531 264.82179688 -40.56304687 264.41703125 -41 264 C-41 263.34 -41 262.68 -41 262 C-41.66 262 -42.32 262 -43 262 C-45.125 260.125 -45.125 260.125 -47 258 C-47 257.34 -47 256.68 -47 256 C-47.66 256 -48.32 256 -49 256 C-49 255.34 -49 254.68 -49 254 C-49.99 253.67 -50.98 253.34 -52 253 C-53.6875 251.5625 -53.6875 251.5625 -55 250 C-55 249.34 -55 248.68 -55 248 C-55.66 248 -56.32 248 -57 248 C-57 247.34 -57 246.68 -57 246 C-57.66 246 -58.32 246 -59 246 C-62 242.53846154 -62 242.53846154 -62 240 C-62.99 240 -63.98 240 -65 240 C-65 239.34 -65 238.68 -65 238 C-65.66 238 -66.32 238 -67 238 C-68.48046875 236.4609375 -68.48046875 236.4609375 -70.1875 234.375 C-73.04820273 231.0017547 -76.02264363 228.12988095 -79.421875 225.3125 C-81.4183513 223.65206427 -83.26999342 221.93760737 -85 220 C-85 219.34 -85 218.68 -85 218 C-85.66 218 -86.32 218 -87 218 C-87 217.34 -87 216.68 -87 216 C-87.99 215.67 -88.98 215.34 -90 215 C-90 214.34 -90 213.68 -90 213 C-90.804375 212.6596875 -90.804375 212.6596875 -91.625 212.3125 C-95.69268393 210.0645694 -99.31748039 207.72637313 -101.0625 203.3125 C-101.79240949 200.74722732 -101.79240949 200.74722732 -104.5 199.875 C-105.325 199.58625 -106.15 199.2975 -107 199 C-107.66 198.01 -108.32 197.02 -109 196 C-108.67 194.35 -108.34 192.7 -108 191 C-91.5 191 -75 191 -58 191 C-58 190.34 -58 189.68 -58 189 C-58.99 188.67 -59.98 188.34 -61 188 C-62.46484375 186.2578125 -62.46484375 186.2578125 -63.9375 184.125 C-65.57259049 181.76174921 -66.87576391 180.09256806 -69.19140625 178.3671875 C-69.78824219 177.91601562 -70.38507813 177.46484375 -71 177 C-71 176.34 -71 175.68 -71 175 C-71.66 175 -72.32 175 -73 175 C-75.625 172.625 -75.625 172.625 -78 170 C-78 169.34 -78 168.68 -78 168 C-79.98 167.01 -79.98 167.01 -82 166 C-82 165.34 -82 164.68 -82 164 C-82.66 164 -83.32 164 -84 164 C-85.34423339 162.34211215 -86.67618483 160.67423683 -88 159 C-91.27654957 155.93474635 -93.52832321 155.63148103 -97.96191406 155.65942383 C-99.76332855 155.65976372 -99.76332855 155.65976372 -101.60113525 155.66011047 C-103.53880768 155.68333626 -103.53880768 155.68333626 -105.515625 155.70703125 C-106.85511805 155.71262948 -108.19461726 155.71689851 -109.53411865 155.71989441 C-113.05237921 155.73132546 -116.57026571 155.76077706 -120.08837891 155.79400635 C-123.68126364 155.82474511 -127.27420906 155.83840784 -130.8671875 155.85351562 C-137.91161096 155.88564887 -144.955781 155.93682379 -152 156 C-152.59887695 153.63330078 -152.59887695 153.63330078 -153 151 C-151.41796875 148.8671875 -151.41796875 148.8671875 -149.1875 146.875 C-146.69611878 144.60850452 -144.88421988 142.82632982 -143 140 C-142.34 140 -141.68 140 -141 140 C-141 139.34 -141 138.68 -141 138 C-140.34 138 -139.68 138 -139 138 C-138.67 137.01 -138.34 136.02 -138 135 C-136.41284847 133.43173695 -136.41284847 133.43173695 -134.40061951 131.76753235 C-130.26877962 128.2591811 -126.41523027 124.55684599 -122.59008789 120.71948242 C-121.89802246 120.02916931 -121.20595703 119.3388562 -120.49291992 118.62762451 C-118.23366404 116.37272737 -115.97803501 114.11424333 -113.72265625 111.85546875 C-112.14479424 110.27828104 -110.56678387 108.70124174 -108.9886322 107.12434387 C-105.69644239 103.83362252 -102.40605379 100.5411136 -99.11694336 97.24731445 C-94.89454318 93.01918926 -90.6676315 88.79560713 -86.43938541 84.57332897 C-83.18719595 81.32474415 -79.93738093 78.07379244 -76.68829155 74.82210732 C-75.12964781 73.26279549 -73.57025814 71.70422892 -72.01011848 70.1464138 C-69.83903901 67.97786227 -67.67117098 65.80615144 -65.50415039 63.63354492 C-64.85641159 62.98783035 -64.20867279 62.34211578 -63.54130554 61.67683411 C-60.38902612 58.62878259 -60.38902612 58.62878259 -58 55 C-57.34 55 -56.68 55 -56 55 C-56 54.34 -56 53.68 -56 53 C-54.42578125 51.484375 -54.42578125 51.484375 -52.3125 49.75 C-49.66578059 47.52265515 -47.39372654 45.38662753 -45.3125 42.625 C-43 40 -43 40 -40.1875 39.125 C-39.465625 39.08375 -38.74375 39.0425 -38 39 C-36.93328627 47.68815426 -36.68339286 56.3852651 -36.4375 65.125 C-36.39419844 66.57292622 -36.35058094 68.02084302 -36.30664062 69.46875 C-36.20078894 72.97906578 -36.09919761 76.48948913 -36 80 C-32.28938416 78.91823959 -32.28938416 78.91823959 -29.91064453 76.07446289 C-29.61013184 75.38989014 -29.30961914 74.70531738 -29 74 C-27.36669922 72.39233398 -27.36669922 72.39233398 -25.4296875 70.80859375 C-19.88193202 66.11443553 -14.89127346 60.90639848 -9.828125 55.70117188 C-8.74144531 54.59805664 -8.74144531 54.59805664 -7.6328125 53.47265625 C-6.65658936 52.47117554 -6.65658936 52.47117554 -5.66064453 51.44946289 C-4 50 -4 50 -2 50 C-1.98969254 49.38834488 -1.97938507 48.77668976 -1.96876526 48.14649963 C-1.86093255 41.80417684 -1.74631658 35.46200286 -1.62768555 29.11987305 C-1.5842619 26.75011292 -1.54259251 24.38032 -1.50268555 22.01049805 C-1.44516232 18.61236667 -1.38141697 15.21440157 -1.31640625 11.81640625 C-1.29969376 10.74975235 -1.28298126 9.68309845 -1.26576233 8.5841217 C-1.24581711 7.60318039 -1.22587189 6.62223907 -1.20532227 5.61157227 C-1.18977798 4.74331314 -1.1742337 3.87505402 -1.15821838 2.98048401 C-1 1 -1 1 0 0 Z M1 2 C1.16870605 3.22477051 1.33741211 4.44954102 1.51123047 5.71142578 C5.89109754 41.21871449 5.89109754 41.21871449 -3.76074219 54.95556641 C-13.37696369 66.98604046 -25.52131129 77.9678051 -38 87 C-38.33 87 -38.66 87 -39 87 C-39 71.49 -39 55.98 -39 40 C-43.43087473 43.79789262 -47.58606977 47.4582625 -51.6875 51.5546875 C-52.4467981 52.31255051 -52.4467981 52.31255051 -53.22143555 53.08572388 C-54.28133819 54.14495233 -55.34000457 55.20541921 -56.39746094 56.26708984 C-57.99303722 57.86801389 -59.5938734 59.46353684 -61.1953125 61.05859375 C-62.23469563 62.09863801 -63.27376833 63.13899261 -64.3125 64.1796875 C-65.69888672 65.56776611 -65.69888672 65.56776611 -67.11328125 66.98388672 C-69.19706592 69.1168885 -71.1545222 71.3257594 -73.09204102 73.59204102 C-78.17855991 79.45233042 -83.72542485 84.86936141 -89.21484375 90.34765625 C-90.396513 91.53000077 -91.57803391 92.71249357 -92.75941467 93.89512634 C-95.22462723 96.36180534 -97.69161886 98.82668703 -100.15991211 101.2902832 C-103.30454484 104.42921932 -106.44466556 107.57262471 -109.58345699 110.71740055 C-112.01904232 113.15662006 -114.45702989 115.59342741 -116.89572334 118.02953911 C-118.05373839 119.18689277 -119.21102693 120.34497387 -120.36753654 121.50383186 C-125.87468429 127.0197095 -131.36669923 132.50724935 -137.32398987 137.54417419 C-139.80207321 139.69670156 -142.09449551 142.0197546 -144.390625 144.36328125 C-145.42737376 145.41764467 -146.4786032 146.4580571 -147.546875 147.48046875 C-148.73377292 148.61735692 -149.87250673 149.8041738 -151 151 C-151 151.66 -151 152.32 -151 153 C-130.87 153 -110.74 153 -90 153 C-89.01 154.98 -89.01 154.98 -88 157 C-86.38574326 158.90118544 -86.38574326 158.90118544 -84.46826172 160.75878906 C-83.37227661 161.85441162 -83.37227661 161.85441162 -82.25415039 162.97216797 C-81.10354126 164.1074292 -81.10354126 164.1074292 -79.9296875 165.265625 C-78.87116577 166.32112549 -78.87116577 166.32112549 -77.79125977 167.39794922 C-75.15796606 170.02079222 -72.51595966 172.63487606 -69.875 175.25 C-63.97625 181.1075 -58.0775 186.965 -52 193 C-79.225 193.495 -79.225 193.495 -107 194 C-103.49641711 198.08751337 -100.18298645 201.94209015 -96.41288757 205.71409607 C-95.11531776 207.01589561 -95.11531776 207.01589561 -93.79153442 208.34399414 C-92.86090179 209.27260254 -91.93026917 210.20121094 -90.97143555 211.15795898 C-89.96705324 212.16369866 -88.96288327 213.16965043 -87.95890808 214.17579651 C-85.2508644 216.88837114 -82.5397012 219.59780706 -79.82780051 222.30652499 C-76.98671019 225.1450734 -74.14807189 227.98607225 -71.30903625 230.82667542 C-66.54888451 235.58864173 -61.7866382 240.3485057 -57.02319336 245.10717773 C-51.51008935 250.61482172 -46.00062232 256.12608424 -40.49299401 261.63920349 C-35.7609755 266.3757511 -31.0270223 271.11035845 -26.29142791 275.84333092 C-23.46402111 278.66917623 -20.63730033 281.49569886 -17.81232262 284.3239727 C-15.16256275 286.97660894 -12.51039221 289.62681051 -9.85629463 292.27510643 C-8.88023815 293.24983486 -7.90504236 294.22542598 -6.93074799 295.20191574 C-5.60686504 296.52850791 -4.27963003 297.8517524 -2.95219421 299.17478943 C-2.20872584 299.91788077 -1.46525747 300.66097212 -0.69925976 301.42658138 C0.7363185 303.11323583 0.7363185 303.11323583 2 303 C2 267.03 2 231.06 2 194 C-11.53 194 -25.06 194 -39 194 C-39 167.6 -39 141.2 -39 114 C-12.27 114 14.46 114 42 114 C42 127.2 42 140.4 42 154 C77.97 154 113.94 154 151 154 C145.80407401 143.60814803 135.50239207 135.36275733 127.30761719 127.1940918 C126.05311945 125.93987678 124.79884314 124.68544024 123.54476929 123.43080139 C120.16714342 120.05289069 116.78646066 116.67805493 113.40518856 113.30379462 C109.8556587 109.76055749 106.3090002 106.21444848 102.76202393 102.6686554 C96.05187824 95.96160819 89.33919041 89.25711136 82.62556577 82.55354673 C74.99781644 74.93698042 67.37290937 67.31757146 59.74824286 59.69791925 C46.71608588 46.67443098 33.68182696 33.65304956 20.64517212 20.63406372 C20.09491025 20.08454145 19.54464839 19.53501917 18.97771192 18.96884471 C17.51486991 17.50798522 16.05199763 16.04715605 14.58912277 14.58632946 C13.73471226 13.73284074 12.88030174 12.87935202 12 12 C11.10874043 11.12176984 10.21748085 10.24353968 9.29921341 9.33869648 C7 7 7 7 4.8125 4.1875 C4.214375 3.465625 3.61625 2.74375 3 2 C2.34 2 1.68 2 1 2 Z " fill="#36CDD6" transform="translate(174,25)"/>
<path d="M0 0 C3.34404203 1.11468068 4.40878241 2.50114734 6.5234375 5.234375 C8.53681418 7.64190478 10.77325868 9.78817819 13 12 C13.88478814 12.88386635 14.76957628 13.7677327 15.68117619 14.67838287 C16.66195402 15.65787594 17.64274623 16.63735461 18.62355042 17.61682129 C19.75504362 18.74684847 20.88653352 19.87687895 22.01802063 21.00691223 C22.6170048 21.60512094 23.21598896 22.20332966 23.83312416 22.81966591 C37.63338772 36.60223228 51.43078115 50.38766889 65.22654819 64.17473602 C73.19940054 72.14242509 81.17319445 80.10916768 89.14916992 88.07373047 C96.11652547 95.03112177 103.08212382 101.9902667 110.04561466 108.95152617 C113.72873942 112.63334784 117.41273811 116.31428536 121.09884834 119.99311829 C124.56394618 123.45142895 128.02669032 126.91207887 131.4876442 130.37453651 C132.75739759 131.6440149 134.02800761 132.91263715 135.29953957 134.18033409 C137.03649596 135.91230817 138.77033089 137.6473493 140.50343323 139.38317871 C141.00586739 139.88270003 141.50830155 140.38222135 142.02596098 140.89687967 C150 148.90483077 150 148.90483077 150 152 C114.03 152 78.06 152 41 152 C41 138.8 41 125.6 41 112 C27.8 112 14.6 112 1 112 C0.82846454 102.14590061 0.65988028 92.29179073 0.5 82.4375 C0.48812275 81.70571156 0.4762455 80.97392311 0.46400833 80.21995926 C0.03263416 53.47848833 -0.12928062 26.7451767 0 0 Z " fill="#E12D73" transform="translate(175,27)"/>
<path d="M0 0 C26.73 0 53.46 0 81 0 C81 26.4 81 52.8 81 80 C54.27 80 27.54 80 0 80 C0 53.6 0 27.2 0 0 Z " fill="#FCFCFC" transform="translate(135,139)"/>
<path d="M0 0 C35.97 0 71.94 0 109 0 C109 35.97 109 71.94 109 109 C104.91248663 105.49641711 101.05790985 102.18298645 97.28590393 98.41288757 C96.41803757 97.54784103 95.5501712 96.68279449 94.65600586 95.79153442 C93.26309326 94.39558548 93.26309326 94.39558548 91.84204102 92.97143555 C90.83630134 91.96705324 89.83034957 90.96288327 88.82420349 89.95890808 C86.11162886 87.2508644 83.40219294 84.5397012 80.69347501 81.82780051 C77.8549266 78.98671019 75.01392775 76.14807189 72.17332458 73.30903625 C67.41135827 68.54888451 62.6514943 63.7866382 57.89282227 59.02319336 C52.38517828 53.51008935 46.87391576 48.00062232 41.36079651 42.49299401 C36.6242489 37.7609755 31.88964155 33.0270223 27.15666908 28.29142791 C24.33082377 25.46402111 21.50430114 22.63730033 18.6760273 19.81232262 C16.02339106 17.16256275 13.37318949 14.51039221 10.72489357 11.85629463 C9.75016514 10.88023815 8.77457402 9.90504236 7.79808426 8.93074799 C6.47149209 7.60686504 5.1482476 6.27963003 3.82521057 4.95219421 C3.08211923 4.20872584 2.33902788 3.46525747 1.57341862 2.69925976 C0 1 0 1 0 0 Z " fill="#E22C74" transform="translate(67,219)"/>
<path d="M0 0 C4.00387391 0.39698467 5.97056566 1.47143492 8.76953125 4.30859375 C9.76049805 5.30536133 9.76049805 5.30536133 10.77148438 6.32226562 C11.44501953 7.02029297 12.11855469 7.71832031 12.8125 8.4375 C13.50537109 9.13166016 14.19824219 9.82582031 14.91210938 10.54101562 C20 15.71913485 20 15.71913485 20 18 C21.98 18.99 21.98 18.99 24 20 C24 20.66 24 21.32 24 22 C24.556875 22.20625 25.11375 22.4125 25.6875 22.625 C28.29091865 24.17297866 29.79396189 26.07734507 31.65625 28.43359375 C33.36539984 30.42594575 35.37209259 31.97325011 37.41730404 33.60707664 C39.19436422 35.17105905 40.66827069 36.85546628 42.19813538 38.66177368 C45.93528519 42.98158812 49.89793047 47.01853213 53.95483398 51.03662109 C54.71663467 51.79535522 55.47843536 52.55408936 56.26332092 53.33581543 C57.90291824 54.96830625 59.5436421 56.59966628 61.18539238 58.22999191 C63.78049315 60.80760509 66.37194989 63.38883104 68.9624176 65.97109985 C76.32282209 73.3071212 83.68895765 80.63736871 91.05932617 87.96337891 C95.57787601 92.45523468 100.09161501 96.95187759 104.60237312 101.45155716 C106.32257737 103.16553676 108.04467872 104.87761449 109.76867485 106.58778 C112.16727368 108.96728546 114.55976282 111.35277387 116.95092773 113.73974609 C117.66928802 114.44934479 118.38764832 115.15894348 119.1277771 115.89004517 C119.773965 116.53753723 120.42015289 117.1850293 121.08592224 117.85214233 C121.65202933 118.41510702 122.21813643 118.97807171 122.80139828 119.55809593 C124 121 124 121 124 123 C124.8353125 123.309375 124.8353125 123.309375 125.6875 123.625 C128.26710104 125.15881683 129.73942538 127.02351771 131.58203125 129.359375 C133.09820007 131.11361991 134.71193965 132.52611077 136.5 134 C139.76428178 136.70147457 142.28518379 139.74222055 145 143 C146.21534208 144.01675677 147.44517927 145.01638936 148.6875 146 C151.88910293 148.63088241 153.11548235 150.87225097 154 155 C153.319375 155.66 152.63875 156.32 151.9375 157 C149.68763983 159.23714909 147.62023128 161.5855953 145.5625 164 C142.602125 167.42273291 139.52113478 170.16778289 136 173 C134.32092089 174.65416108 132.65556896 176.32230904 131 178 C15 294 15 294 12.34553528 296.63883972 C10.69101561 298.30438113 9.07920071 300.01287922 7.5 301.75 C4.86794823 304.11884659 3.47184157 304.70241358 0 305 C-0.35191406 304.56429688 -0.70382813 304.12859375 -1.06640625 303.6796875 C-4.25054076 299.83877328 -7.55627603 296.57999229 -11.40234375 293.41015625 C-13.56489872 291.50139746 -15.22457717 289.26519465 -17 287 C-17.7425 286.443125 -18.485 285.88625 -19.25 285.3125 C-19.8275 284.879375 -20.405 284.44625 -21 284 C-21 283.34 -21 282.68 -21 282 C-21.66 282 -22.32 282 -23 282 C-23 281.34 -23 280.68 -23 280 C-23.66 280 -24.32 280 -25 280 C-25 279.34 -25 278.68 -25 278 C-25.66 278 -26.32 278 -27 278 C-28.48046875 276.4609375 -28.48046875 276.4609375 -30.1875 274.375 C-33.1100663 270.91212733 -36.15830902 268.02489092 -39.71484375 265.2265625 C-40.13894531 264.82179688 -40.56304687 264.41703125 -41 264 C-41 263.34 -41 262.68 -41 262 C-41.66 262 -42.32 262 -43 262 C-45.125 260.125 -45.125 260.125 -47 258 C-47 257.34 -47 256.68 -47 256 C-47.66 256 -48.32 256 -49 256 C-49 255.34 -49 254.68 -49 254 C-49.99 253.67 -50.98 253.34 -52 253 C-53.6875 251.5625 -53.6875 251.5625 -55 250 C-55 249.34 -55 248.68 -55 248 C-55.66 248 -56.32 248 -57 248 C-57 247.34 -57 246.68 -57 246 C-57.66 246 -58.32 246 -59 246 C-62 242.53846154 -62 242.53846154 -62 240 C-62.99 240 -63.98 240 -65 240 C-65 239.34 -65 238.68 -65 238 C-65.66 238 -66.32 238 -67 238 C-68.48046875 236.4609375 -68.48046875 236.4609375 -70.1875 234.375 C-73.04820273 231.0017547 -76.02264363 228.12988095 -79.421875 225.3125 C-81.4183513 223.65206427 -83.26999342 221.93760737 -85 220 C-85 219.34 -85 218.68 -85 218 C-85.66 218 -86.32 218 -87 218 C-87 217.34 -87 216.68 -87 216 C-87.99 215.67 -88.98 215.34 -90 215 C-90 214.34 -90 213.68 -90 213 C-90.804375 212.6596875 -90.804375 212.6596875 -91.625 212.3125 C-95.69268393 210.0645694 -99.31748039 207.72637313 -101.0625 203.3125 C-101.79240949 200.74722732 -101.79240949 200.74722732 -104.5 199.875 C-105.325 199.58625 -106.15 199.2975 -107 199 C-107.66 198.01 -108.32 197.02 -109 196 C-108.67 194.35 -108.34 192.7 -108 191 C-91.5 191 -75 191 -58 191 C-58 190.34 -58 189.68 -58 189 C-58.99 188.67 -59.98 188.34 -61 188 C-62.46484375 186.2578125 -62.46484375 186.2578125 -63.9375 184.125 C-65.57259049 181.76174921 -66.87576391 180.09256806 -69.19140625 178.3671875 C-69.78824219 177.91601562 -70.38507813 177.46484375 -71 177 C-71 176.34 -71 175.68 -71 175 C-71.66 175 -72.32 175 -73 175 C-75.625 172.625 -75.625 172.625 -78 170 C-78 169.34 -78 168.68 -78 168 C-79.98 167.01 -79.98 167.01 -82 166 C-82 165.34 -82 164.68 -82 164 C-82.66 164 -83.32 164 -84 164 C-85.34423339 162.34211215 -86.67618483 160.67423683 -88 159 C-91.27654957 155.93474635 -93.52832321 155.63148103 -97.96191406 155.65942383 C-99.76332855 155.65976372 -99.76332855 155.65976372 -101.60113525 155.66011047 C-103.53880768 155.68333626 -103.53880768 155.68333626 -105.515625 155.70703125 C-106.85511805 155.71262948 -108.19461726 155.71689851 -109.53411865 155.71989441 C-113.05237921 155.73132546 -116.57026571 155.76077706 -120.08837891 155.79400635 C-123.68126364 155.82474511 -127.27420906 155.83840784 -130.8671875 155.85351562 C-137.91161096 155.88564887 -144.955781 155.93682379 -152 156 C-152.59887695 153.63330078 -152.59887695 153.63330078 -153 151 C-151.41796875 148.8671875 -151.41796875 148.8671875 -149.1875 146.875 C-146.69611878 144.60850452 -144.88421988 142.82632982 -143 140 C-142.34 140 -141.68 140 -141 140 C-141 139.34 -141 138.68 -141 138 C-140.34 138 -139.68 138 -139 138 C-138.67 137.01 -138.34 136.02 -138 135 C-136.41284847 133.43173695 -136.41284847 133.43173695 -134.40061951 131.76753235 C-130.26877962 128.2591811 -126.41523027 124.55684599 -122.59008789 120.71948242 C-121.89802246 120.02916931 -121.20595703 119.3388562 -120.49291992 118.62762451 C-118.23366404 116.37272737 -115.97803501 114.11424333 -113.72265625 111.85546875 C-112.14479424 110.27828104 -110.56678387 108.70124174 -108.9886322 107.12434387 C-105.69644239 103.83362252 -102.40605379 100.5411136 -99.11694336 97.24731445 C-94.89454318 93.01918926 -90.6676315 88.79560713 -86.43938541 84.57332897 C-83.18719595 81.32474415 -79.93738093 78.07379244 -76.68829155 74.82210732 C-75.12964781 73.26279549 -73.57025814 71.70422892 -72.01011848 70.1464138 C-69.83903901 67.97786227 -67.67117098 65.80615144 -65.50415039 63.63354492 C-64.85641159 62.98783035 -64.20867279 62.34211578 -63.54130554 61.67683411 C-60.38902612 58.62878259 -60.38902612 58.62878259 -58 55 C-57.34 55 -56.68 55 -56 55 C-56 54.34 -56 53.68 -56 53 C-54.42578125 51.484375 -54.42578125 51.484375 -52.3125 49.75 C-49.66578059 47.52265515 -47.39372654 45.38662753 -45.3125 42.625 C-43 40 -43 40 -40.1875 39.125 C-39.465625 39.08375 -38.74375 39.0425 -38 39 C-36.93328627 47.68815426 -36.68339286 56.3852651 -36.4375 65.125 C-36.39419844 66.57292622 -36.35058094 68.02084302 -36.30664062 69.46875 C-36.20078894 72.97906578 -36.09919761 76.48948913 -36 80 C-32.28938416 78.91823959 -32.28938416 78.91823959 -29.91064453 76.07446289 C-29.61013184 75.38989014 -29.30961914 74.70531738 -29 74 C-27.36669922 72.39233398 -27.36669922 72.39233398 -25.4296875 70.80859375 C-19.88193202 66.11443553 -14.89127346 60.90639848 -9.828125 55.70117188 C-8.74144531 54.59805664 -8.74144531 54.59805664 -7.6328125 53.47265625 C-6.65658936 52.47117554 -6.65658936 52.47117554 -5.66064453 51.44946289 C-4 50 -4 50 -2 50 C-1.98969254 49.38834488 -1.97938507 48.77668976 -1.96876526 48.14649963 C-1.86093255 41.80417684 -1.74631658 35.46200286 -1.62768555 29.11987305 C-1.5842619 26.75011292 -1.54259251 24.38032 -1.50268555 22.01049805 C-1.44516232 18.61236667 -1.38141697 15.21440157 -1.31640625 11.81640625 C-1.29969376 10.74975235 -1.28298126 9.68309845 -1.26576233 8.5841217 C-1.24581711 7.60318039 -1.22587189 6.62223907 -1.20532227 5.61157227 C-1.18977798 4.74331314 -1.1742337 3.87505402 -1.15821838 2.98048401 C-1 1 -1 1 0 0 Z M1 2 C1.16870605 3.22477051 1.33741211 4.44954102 1.51123047 5.71142578 C5.89109754 41.21871449 5.89109754 41.21871449 -3.76074219 54.95556641 C-13.37696369 66.98604046 -25.52131129 77.9678051 -38 87 C-38.33 87 -38.66 87 -39 87 C-39 71.49 -39 55.98 -39 40 C-43.43087473 43.79789262 -47.58606977 47.4582625 -51.6875 51.5546875 C-52.4467981 52.31255051 -52.4467981 52.31255051 -53.22143555 53.08572388 C-54.28133819 54.14495233 -55.34000457 55.20541921 -56.39746094 56.26708984 C-57.99303722 57.86801389 -59.5938734 59.46353684 -61.1953125 61.05859375 C-62.23469563 62.09863801 -63.27376833 63.13899261 -64.3125 64.1796875 C-65.69888672 65.56776611 -65.69888672 65.56776611 -67.11328125 66.98388672 C-69.19706592 69.1168885 -71.1545222 71.3257594 -73.09204102 73.59204102 C-78.17855991 79.45233042 -83.72542485 84.86936141 -89.21484375 90.34765625 C-90.396513 91.53000077 -91.57803391 92.71249357 -92.75941467 93.89512634 C-95.22462723 96.36180534 -97.69161886 98.82668703 -100.15991211 101.2902832 C-103.30454484 104.42921932 -106.44466556 107.57262471 -109.58345699 110.71740055 C-112.01904232 113.15662006 -114.45702989 115.59342741 -116.89572334 118.02953911 C-118.05373839 119.18689277 -119.21102693 120.34497387 -120.36753654 121.50383186 C-125.87468429 127.0197095 -131.36669923 132.50724935 -137.32398987 137.54417419 C-139.80207321 139.69670156 -142.09449551 142.0197546 -144.390625 144.36328125 C-145.42737376 145.41764467 -146.4786032 146.4580571 -147.546875 147.48046875 C-148.73377292 148.61735692 -149.87250673 149.8041738 -151 151 C-151 151.66 -151 152.32 -151 153 C-130.87 153 -110.74 153 -90 153 C-89.01 154.98 -89.01 154.98 -88 157 C-86.38574326 158.90118544 -86.38574326 158.90118544 -84.46826172 160.75878906 C-83.37227661 161.85441162 -83.37227661 161.85441162 -82.25415039 162.97216797 C-81.10354126 164.1074292 -81.10354126 164.1074292 -79.9296875 165.265625 C-78.87116577 166.32112549 -78.87116577 166.32112549 -77.79125977 167.39794922 C-75.15796606 170.02079222 -72.51595966 172.63487606 -69.875 175.25 C-63.97625 181.1075 -58.0775 186.965 -52 193 C-79.225 193.495 -79.225 193.495 -107 194 C-103.49367642 198.09071085 -100.18174215 201.94317358 -96.40615845 205.71409607 C-95.1064209 207.01589561 -95.1064209 207.01589561 -93.78042603 208.34399414 C-92.84822235 209.27260254 -91.91601868 210.20121094 -90.95556641 211.15795898 C-89.94955304 212.16368978 -88.9437608 213.16964181 -87.93817139 214.17579651 C-85.22597093 216.88828222 -82.51071267 219.59768773 -79.79486895 222.30652499 C-76.95034242 225.14477271 -74.10867395 227.98587908 -71.26669312 230.82667542 C-65.89275488 236.19751364 -60.51627409 241.56579905 -55.13886106 246.93315798 C-49.01351638 253.04730011 -42.891033 259.16430404 -36.76878095 265.28154266 C-24.18235453 277.85753481 -11.59236324 290.42995255 1 303 C4.8724516 301.40981832 7.31375598 298.93002156 10.24859619 295.98518372 C11.02317268 295.21211216 11.02317268 295.21211216 11.81339717 294.42342299 C13.54216975 292.69560283 15.26369333 290.96073715 16.98535156 289.22583008 C18.22373979 287.98524046 19.46257652 286.74509839 20.701828 285.50537109 C23.37024219 282.8340226 26.03546738 280.15954628 28.69828033 277.48261452 C32.91316424 273.2454569 37.13513141 269.01540525 41.35809326 264.78630066 C48.04230408 258.0907031 54.72182897 251.39045316 61.39933085 244.68816537 C73.34171893 232.70151437 85.28958808 220.7203333 97.24278808 208.7444641 C101.43469248 204.54417844 105.62377059 200.34110036 109.81056166 196.13571799 C112.42393591 193.5116498 115.03938137 190.88965311 117.65532875 188.26815033 C118.86229386 187.05773408 120.06838742 185.846448 121.27351189 184.63419914 C126.82518854 179.05044653 132.35678258 173.49291477 138.3748436 168.40394115 C141.11249871 166.0389339 143.59753112 163.45623929 146.0625 160.8125 C146.55943359 160.30525391 147.05636719 159.79800781 147.56835938 159.27539062 C149.1600946 157.62808425 149.1600946 157.62808425 151 155 C150.82769733 150.83016553 147.97200577 148.46586859 145.23922729 145.55882263 C144.50335178 144.77325081 144.50335178 144.77325081 143.75261009 143.97180885 C138.01313896 137.88243834 132.09836842 131.96568515 126.17236328 126.05883789 C124.92742253 124.81418006 123.68270361 123.56930032 122.43818665 122.32421875 C119.09580161 118.98154967 115.75036676 115.64194875 112.40432978 112.30293584 C108.88817066 108.79308296 105.37489587 105.2803452 101.86129761 101.76792908 C95.21851078 95.12823685 88.57318262 88.4910943 81.92691028 81.85489124 C74.37407696 74.31325287 66.82409631 66.76876143 59.27435327 59.22402966 C46.37160314 46.32994216 33.46675226 33.43796038 20.55949402 20.54838562 C19.7428159 19.7328169 19.7428159 19.7328169 18.90963924 18.90077204 C17.46242025 17.45553531 16.01517081 16.01032909 14.56791878 14.56512547 C13.72050558 13.71863406 12.87309238 12.87214266 12 12 C11.10980101 11.12283042 10.21960201 10.24566084 9.30242729 9.34191036 C7 7 7 7 4.8125 4.1875 C4.214375 3.465625 3.61625 2.74375 3 2 C2.34 2 1.68 2 1 2 Z " fill="#EFF2F4" transform="translate(174,25)"/>
<path d="M0 0 C-1.61489297 4.04204605 -4.47932167 6.75432311 -7.51611328 9.7590332 C-8.36046684 10.60623428 -8.36046684 10.60623428 -9.22187805 11.47055054 C-11.08317314 13.33554806 -12.95157069 15.19324776 -14.8203125 17.05078125 C-16.12144854 18.35072428 -17.42221414 19.65103819 -18.72262573 20.95170593 C-21.45164986 23.6791657 -24.1839997 26.4032341 -26.91894531 29.12475586 C-30.40729995 32.5961969 -33.88911285 36.07410705 -37.36863899 39.55439472 C-40.05710618 42.24258844 -42.74818421 44.92815577 -45.4401207 47.61287498 C-46.72358861 48.89318126 -48.00646983 50.17407597 -49.28873062 51.4555912 C-61.4282055 63.58029538 -61.4282055 63.58029538 -67.47047424 68.67149353 C-69.79002203 70.68619268 -71.79505194 72.93811357 -73.8125 75.25 C-76.14726643 77.9112205 -78.48268372 80.51171078 -81 83 C-80.25133163 82.98223511 -79.50266327 82.96447021 -78.73130798 82.94616699 C-71.65524705 82.7854747 -64.57982398 82.66387599 -57.50244808 82.58550262 C-53.86419925 82.54385226 -50.22746498 82.48742392 -46.59008789 82.39648438 C-43.07565651 82.30917453 -39.56267575 82.26164956 -36.04724312 82.24098206 C-34.06217144 82.21913333 -32.07767911 82.15673801 -30.0934906 82.09362793 C-21.25594777 82.08925347 -21.25594777 82.08925347 -17.84608459 84.56190491 C-16.05789163 86.61713444 -14.54624089 88.75888972 -13 91 C-11.78533597 92.30461151 -10.54034064 93.58158846 -9.26782227 94.82983398 C-8.62768692 95.46666611 -7.98755157 96.10349823 -7.32801819 96.7596283 C-6.66418625 97.4151619 -6.00035431 98.0706955 -5.31640625 98.74609375 C-4.61603745 99.44267593 -3.91566864 100.13925812 -3.19407654 100.85694885 C-0.98599203 103.05294027 1.22533976 105.24561488 3.4375 107.4375 C6.37652616 110.35003424 9.31228755 113.26580263 12.24609375 116.18359375 C13.26309608 117.18814857 13.26309608 117.18814857 14.30064392 118.21299744 C14.91871414 118.82776443 15.53678436 119.44253143 16.17358398 120.07592773 C16.72094711 120.61805405 17.26831024 121.16018036 17.83226013 121.71873474 C19 123 19 123 19 124 C-8.225 124.495 -8.225 124.495 -36 125 C-14.22 146.78 -14.22 146.78 8 169 C7.01 169.33 6.02 169.66 5 170 C5 169.34 5 168.68 5 168 C4.34 168 3.68 168 3 168 C1.51953125 166.4609375 1.51953125 166.4609375 -0.1875 164.375 C-3.04820273 161.0017547 -6.02264363 158.12988095 -9.421875 155.3125 C-11.4183513 153.65206427 -13.26999342 151.93760737 -15 150 C-15 149.34 -15 148.68 -15 148 C-15.66 148 -16.32 148 -17 148 C-17 147.34 -17 146.68 -17 146 C-17.99 145.67 -18.98 145.34 -20 145 C-20 144.34 -20 143.68 -20 143 C-20.804375 142.6596875 -20.804375 142.6596875 -21.625 142.3125 C-25.69268393 140.0645694 -29.31748039 137.72637313 -31.0625 133.3125 C-31.79240949 130.74722732 -31.79240949 130.74722732 -34.5 129.875 C-35.325 129.58625 -36.15 129.2975 -37 129 C-37.66 128.01 -38.32 127.02 -39 126 C-38.67 124.35 -38.34 122.7 -38 121 C-21.5 121 -5 121 12 121 C12 120.34 12 119.68 12 119 C10.515 118.505 10.515 118.505 9 118 C7.53515625 116.2578125 7.53515625 116.2578125 6.0625 114.125 C4.42740951 111.76174921 3.12423609 110.09256806 0.80859375 108.3671875 C0.21175781 107.91601562 -0.38507813 107.46484375 -1 107 C-1 106.34 -1 105.68 -1 105 C-1.66 105 -2.32 105 -3 105 C-5.625 102.625 -5.625 102.625 -8 100 C-8 99.34 -8 98.68 -8 98 C-9.98 97.01 -9.98 97.01 -12 96 C-12 95.34 -12 94.68 -12 94 C-12.66 94 -13.32 94 -14 94 C-15.34423339 92.34211215 -16.67618483 90.67423683 -18 89 C-21.27654957 85.93474635 -23.52832321 85.63148103 -27.96191406 85.65942383 C-29.76332855 85.65976372 -29.76332855 85.65976372 -31.60113525 85.66011047 C-33.53880768 85.68333626 -33.53880768 85.68333626 -35.515625 85.70703125 C-36.85511805 85.71262948 -38.19461726 85.71689851 -39.53411865 85.71989441 C-43.05237921 85.73132546 -46.57026571 85.76077706 -50.08837891 85.79400635 C-53.68126364 85.82474511 -57.27420906 85.83840784 -60.8671875 85.85351562 C-67.91161096 85.88564887 -74.955781 85.93682379 -82 86 C-82.59887695 83.63330078 -82.59887695 83.63330078 -83 81 C-81.41796875 78.8671875 -81.41796875 78.8671875 -79.1875 76.875 C-76.69611878 74.60850452 -74.88421988 72.82632982 -73 70 C-72.34 70 -71.68 70 -71 70 C-71 69.34 -71 68.68 -71 68 C-70.34 68 -69.68 68 -69 68 C-68.67 67.01 -68.34 66.02 -68 65 C-66.62338257 63.64585876 -66.62338257 63.64585876 -64.77490234 62.14819336 C-59.02026988 57.26028969 -53.78336392 51.87849338 -48.47392654 46.51852608 C-46.56844834 44.59548691 -44.65930079 42.67615972 -42.74911499 40.75779724 C-37.32467955 35.30903822 -31.90610981 29.85447215 -26.49169922 24.39575195 C-23.16694011 21.04429427 -19.83739338 17.69765615 -16.5048027 14.35398674 C-15.23739304 13.08035717 -13.97188553 11.80483186 -12.70830154 10.52740669 C-10.95145508 8.7514585 -9.18864002 6.98165028 -7.42431641 5.21313477 C-6.90173248 4.68178925 -6.37914856 4.15044373 -5.84072876 3.60299683 C-2.22789961 0 -2.22789961 0 0 0 Z " fill="#D0D9E0" transform="translate(104,95)"/>
<path d="M0 0 C2.85009448 1.29527192 4.90891819 2.65978568 7.11621094 4.87329102 C7.98666046 5.7391256 7.98666046 5.7391256 8.87469482 6.62245178 C9.48838928 7.24333176 10.10208374 7.86421173 10.734375 8.50390625 C11.37240051 9.14238998 12.01042603 9.78087372 12.66778564 10.43870544 C14.01153063 11.78546576 15.35285011 13.13464994 16.69189453 14.48608398 C18.75108423 16.56359387 20.818228 18.63292661 22.88671875 20.70117188 C24.19057836 22.00994442 25.49398001 23.31917341 26.796875 24.62890625 C27.41866638 25.25181046 28.04045776 25.87471466 28.68109131 26.51649475 C33 30.88394041 33 30.88394041 33 32 C5.775 32.495 5.775 32.495 -22 33 C-7.48 47.52 7.04 62.04 22 77 C21.01 77.33 20.02 77.66 19 78 C19 77.34 19 76.68 19 76 C18.34 76 17.68 76 17 76 C15.51953125 74.4609375 15.51953125 74.4609375 13.8125 72.375 C10.95179727 69.0017547 7.97735637 66.12988095 4.578125 63.3125 C2.5816487 61.65206427 0.73000658 59.93760737 -1 58 C-1 57.34 -1 56.68 -1 56 C-1.66 56 -2.32 56 -3 56 C-3 55.34 -3 54.68 -3 54 C-4.485 53.505 -4.485 53.505 -6 53 C-6 52.34 -6 51.68 -6 51 C-6.804375 50.6596875 -6.804375 50.6596875 -7.625 50.3125 C-11.69268393 48.0645694 -15.31748039 45.72637313 -17.0625 41.3125 C-17.79240949 38.74722732 -17.79240949 38.74722732 -20.5 37.875 C-21.325 37.58625 -22.15 37.2975 -23 37 C-23.66 36.01 -24.32 35.02 -25 34 C-24.67 32.35 -24.34 30.7 -24 29 C-7.5 29 9 29 26 29 C26 28.34 26 27.68 26 27 C25.01 26.67 24.02 26.34 23 26 C21.53515625 24.2578125 21.53515625 24.2578125 20.0625 22.125 C18.42740951 19.76174921 17.12423609 18.09256806 14.80859375 16.3671875 C14.21175781 15.91601562 13.61492187 15.46484375 13 15 C13 14.34 13 13.68 13 13 C12.34 13 11.68 13 11 13 C8.375 10.625 8.375 10.625 6 8 C6 7.34 6 6.68 6 6 C4.68 5.34 3.36 4.68 2 4 C2 3.34 2 2.68 2 2 C1.34 2 0.68 2 0 2 C0 1.34 0 0.68 0 0 Z " fill="#F2DDE6" transform="translate(90,187)"/>
<path d="M0 0 C7.10512006 5.80138692 13.4701862 12.34389677 19.93359375 18.8359375 C21.17890345 20.0831151 22.42443621 21.33007001 23.67018127 22.57681274 C26.92905366 25.83948105 30.18491018 29.10514251 33.44012451 32.37145996 C36.77009779 35.71171062 40.10294673 39.04908931 43.43554688 42.38671875 C49.95983139 48.92168893 56.48092996 55.45982831 63 62 C65.8605891 60.64062915 67.85927699 59.35479531 70 57 C71.485 57.495 71.485 57.495 73 58 C66.85714286 64.71428571 66.85714286 64.71428571 62 65 C61.47212891 64.34644531 61.47212891 64.34644531 60.93359375 63.6796875 C57.74945924 59.83877328 54.44372397 56.57999229 50.59765625 53.41015625 C48.43510128 51.50139746 46.77542283 49.26519465 45 47 C44.2575 46.443125 43.515 45.88625 42.75 45.3125 C42.1725 44.879375 41.595 44.44625 41 44 C41 43.34 41 42.68 41 42 C40.34 42 39.68 42 39 42 C39 41.34 39 40.68 39 40 C38.34 40 37.68 40 37 40 C37 39.34 37 38.68 37 38 C36.34 38 35.68 38 35 38 C33.51953125 36.4609375 33.51953125 36.4609375 31.8125 34.375 C28.8899337 30.91212733 25.84169098 28.02489092 22.28515625 25.2265625 C21.86105469 24.82179688 21.43695313 24.41703125 21 24 C21 23.34 21 22.68 21 22 C20.34 22 19.68 22 19 22 C16.875 20.125 16.875 20.125 15 18 C15 17.34 15 16.68 15 16 C14.34 16 13.68 16 13 16 C13 15.34 13 14.68 13 14 C12.01 13.67 11.02 13.34 10 13 C8.3125 11.5625 8.3125 11.5625 7 10 C7 9.34 7 8.68 7 8 C6.34 8 5.68 8 5 8 C5 7.34 5 6.68 5 6 C4.34 6 3.68 6 3 6 C0 2.53846154 0 2.53846154 0 0 Z " fill="#F7F5F7" transform="translate(112,265)"/>
<path d="M0 0 C4.26705487 1.65494286 7.1371993 4.84913041 10.296875 8.03125 C10.89050842 8.62296997 11.48414185 9.21468994 12.09576416 9.82434082 C13.34543718 11.07265581 14.59259992 12.32348823 15.83740234 13.57666016 C17.75007952 15.50007997 19.67323119 17.41256099 21.59765625 19.32421875 C22.81053798 20.53842139 24.02279952 21.75324393 25.234375 22.96875 C25.81241882 23.54274536 26.39046265 24.11674072 26.98602295 24.70812988 C31 28.77006566 31 28.77006566 31 31 C12.85 31 -5.3 31 -24 31 C-24.33 31.66 -24.66 32.32 -25 33 C-24.67 31.68 -24.34 30.36 -24 29 C-7.5 29 9 29 26 29 C26 28.34 26 27.68 26 27 C25.01 26.67 24.02 26.34 23 26 C21.53515625 24.2578125 21.53515625 24.2578125 20.0625 22.125 C18.42740951 19.76174921 17.12423609 18.09256806 14.80859375 16.3671875 C14.21175781 15.91601562 13.61492187 15.46484375 13 15 C13 14.34 13 13.68 13 13 C12.34 13 11.68 13 11 13 C8.375 10.625 8.375 10.625 6 8 C6 7.34 6 6.68 6 6 C4.68 5.34 3.36 4.68 2 4 C2 3.34 2 2.68 2 2 C1.34 2 0.68 2 0 2 C0 1.34 0 0.68 0 0 Z " fill="#F9F9F9" transform="translate(90,187)"/>
<path d="M0 0 C0.99 0.33 1.98 0.66 3 1 C3.02909763 4.24998112 3.04683161 7.49992857 3.0625 10.75 C3.07087891 11.67039063 3.07925781 12.59078125 3.08789062 13.5390625 C3.09111328 14.42851562 3.09433594 15.31796875 3.09765625 16.234375 C3.10289307 17.05131836 3.10812988 17.86826172 3.11352539 18.70996094 C3 21 3 21 2.5057373 22.76477051 C1.87248883 25.56356677 1.83618752 28.18360608 1.79467773 31.05371094 C1.77473251 32.27467468 1.75478729 33.49563843 1.73423767 34.75360107 C1.71752518 36.06725647 1.70081268 37.38091187 1.68359375 38.734375 C1.66301081 40.09629936 1.64201399 41.45821752 1.62062073 42.82012939 C1.56553835 46.39734872 1.51606836 49.97462438 1.46777344 53.55194092 C1.41745711 57.20525094 1.36182403 60.85847958 1.30664062 64.51171875 C1.19922838 71.67441017 1.09774615 78.83716946 1 86 C0.67 86 0.34 86 0 86 C0 57.62 0 29.24 0 0 Z " fill="#3FD9DC" transform="translate(176,219)"/>
<path d="M0 0 C0.66 0.33 1.32 0.66 2 1 C0.02 2.98 -1.96 4.96 -4 7 C-4.66 6.67 -5.32 6.34 -6 6 C-4.02 4.02 -2.04 2.04 0 0 Z M-10 10 C-10 13 -10 13 -12 15.1875 C-12.66 15.785625 -13.32 16.38375 -14 17 C-14.66 16.67 -15.32 16.34 -16 16 C-14.02 14.02 -12.04 12.04 -10 10 Z M-17 17 C-17 17.99 -17 18.98 -17 20 C-17.99 20 -18.98 20 -20 20 C-19.01 19.01 -18.02 18.02 -17 17 Z M-21 21 C-20.67 21.66 -20.34 22.32 -20 23 C-20.66 22.67 -21.32 22.34 -22 22 C-21.67 21.67 -21.34 21.34 -21 21 Z M-28 28 C-27.67 28.66 -27.34 29.32 -27 30 C-38.40027216 43.24008554 -38.40027216 43.24008554 -44 45 C-39.01595832 38.96668638 -33.58084697 33.4815829 -28 28 Z M-46 46 C-46 50.32562149 -48.22999256 52.88127429 -51 56 C-53.55952647 58.16684496 -56.22450852 60.11982835 -59 62 C-57.63107063 58.90296672 -56.07882641 56.88238392 -53.625 54.5625 C-50.83854727 51.86330571 -48.34766619 49.09891937 -46 46 Z " fill="#012858" transform="translate(93,107)"/>
<path d="M0 0 C1.98 0 3.96 0 6 0 C5.67 27.39 5.34 54.78 5 83 C4.67 83 4.34 83 4 83 C3.99413376 82.00441574 3.98826752 81.00883148 3.98222351 79.983078 C3.92505954 70.60966905 3.85233135 61.23649351 3.76428509 51.86332226 C3.7195197 47.04423373 3.68027732 42.22523095 3.65356445 37.40600586 C3.62759283 32.75689066 3.58723441 28.10810437 3.53681374 23.45919228 C3.52010333 21.68379107 3.50861511 19.90833292 3.50238609 18.132864 C3.49279013 15.64966565 3.46478627 13.1673167 3.43237305 10.68432617 C3.43380814 9.94705292 3.43524323 9.20977966 3.4367218 8.45016479 C3.37527671 4.44186158 3.37527671 4.44186158 1.47297668 1.01972961 C0.98689438 0.68321884 0.50081207 0.34670807 0 0 Z " fill="#EB2176" transform="translate(170,219)"/>
<path d="M0 0 C0.33 0 0.66 0 1 0 C1.93373938 5.5589304 2.17511316 10.950357 2.203125 16.58203125 C2.20882507 17.47742111 2.21452515 18.37281097 2.22039795 19.29533386 C2.2297943 21.17531163 2.23636042 23.05530547 2.24023438 24.93530273 C2.25002914 27.82108438 2.28113725 30.70617931 2.3125 33.59179688 C2.31902244 35.42187079 2.32427588 37.25194976 2.328125 39.08203125 C2.3404718 39.94657425 2.3528186 40.81111725 2.36553955 41.70185852 C2.35644531 44.12036133 2.35644531 44.12036133 2 48 C1.01 48.66 0.02 49.32 -1 50 C-0.67 33.5 -0.34 17 0 0 Z " fill="#FBFCFB" transform="translate(173,26)"/>
<path d="M0 0 C0.33 0 0.66 0 1 0 C1 5.94 1 11.88 1 18 C-5 13 -5 13 -5.5 9.8125 C-5 7 -5 7 -3 5 C-2.67 4.01 -2.34 3.02 -2 2 C-1.34 1.34 -0.68 0.68 0 0 Z " fill="#DD226C" transform="translate(174,309)"/>
<path d="M0 0 C2.31 1.98 4.62 3.96 7 6 C6.375 8.4375 6.375 8.4375 5 11 C2.0625 12 2.0625 12 -1 12 C-2.875 10.5625 -2.875 10.5625 -4 9 C-3.71125 8.443125 -3.4225 7.88625 -3.125 7.3125 C-1.9586747 4.91505355 -0.9660119 2.48403061 0 0 Z " fill="#DD3A7B" transform="translate(188,40)"/>
<path d="M0 0 C4.00517396 1.60373148 6.6771098 4.42113986 9.640625 7.4453125 C10.16767029 7.97518768 10.69471558 8.50506287 11.23773193 9.05099487 C12.91325675 10.73767825 14.58167722 12.43119564 16.25 14.125 C17.38755851 15.27259388 18.52557436 16.41973461 19.6640625 17.56640625 C22.44803465 20.37238137 25.2256576 23.18450464 28 26 C27.01 26.33 26.02 26.66 25 27 C25 26.34 25 25.68 25 25 C24.34 25 23.68 25 23 25 C21.51953125 23.4609375 21.51953125 23.4609375 19.8125 21.375 C16.95179727 18.0017547 13.97735637 15.12988095 10.578125 12.3125 C8.5816487 10.65206427 6.73000658 8.93760737 5 7 C5 6.34 5 5.68 5 5 C4.34 5 3.68 5 3 5 C3 4.34 3 3.68 3 3 C2.01 2.67 1.02 2.34 0 2 C0 1.34 0 0.68 0 0 Z " fill="#FAFAFA" transform="translate(84,238)"/>
<path d="M0 0 C0.33 0.99 0.66 1.98 1 3 C-0.90763331 4.98861775 -2.82515911 6.96565718 -4.75 8.9375 C-5.55824219 9.78344727 -5.55824219 9.78344727 -6.3828125 10.64648438 C-6.91132812 11.18466797 -7.43984375 11.72285156 -7.984375 12.27734375 C-8.70705566 13.02359009 -8.70705566 13.02359009 -9.44433594 13.78491211 C-11.25704528 15.20077124 -12.75631224 15.59147949 -15 16 C-10.30233025 10.33870569 -5.25276628 5.14771096 0 0 Z " fill="#21456D" transform="translate(129,70)"/>
<path d="M0 0 C0 3 0 3 -2.046875 5.33984375 C-2.93890625 6.19707031 -3.8309375 7.05429688 -4.75 7.9375 C-5.63171875 8.79214844 -6.5134375 9.64679688 -7.421875 10.52734375 C-8.69804687 11.75130859 -8.69804687 11.75130859 -10 13 C-11.33669325 14.32996493 -12.67133135 15.66201825 -14 17 C-13.49259538 12.60249328 -10.91706686 10.13051078 -8 7 C-7.34 7 -6.68 7 -6 7 C-6 6.34 -6 5.68 -6 5 C-5.34 5 -4.68 5 -4 5 C-3.67 4.01 -3.34 3.02 -3 2 C-2.01 1.34 -1.02 0.68 0 0 Z " fill="#E8ECEF" transform="translate(39,158)"/>
<path d="M0 0 C0 0.66 0 1.32 0 2 C-1.35546875 3.296875 -1.35546875 3.296875 -3.1875 4.75 C-5.66416362 6.78636786 -7.76563421 8.79411528 -9.75 11.3125 C-12 14 -12 14 -15 15 C-15 12 -15 12 -13.42578125 10.3515625 C-12.72839844 9.78179687 -12.03101563 9.21203125 -11.3125 8.625 C-8.79308335 6.52474293 -6.38275004 4.44229059 -4.125 2.0625 C-2 0 -2 0 0 0 Z " fill="#F6FAFA" transform="translate(321,186)"/>
<path d="M0 0 C1.0725 -0.01417969 2.145 -0.02835938 3.25 -0.04296875 C6 0.1875 6 0.1875 8 2.1875 C7 3.1875 7 3.1875 3.62109375 3.28515625 C2.22652923 3.27848369 0.83198257 3.26652532 -0.5625 3.25 C-1.27341797 3.24548828 -1.98433594 3.24097656 -2.71679688 3.23632812 C-4.47790013 3.22450864 -6.23896036 3.20657263 -8 3.1875 C-8 2.5275 -8 1.8675 -8 1.1875 C-5.27457733 -0.17521133 -3.03912726 0.01826399 0 0 Z " fill="#DA266C" transform="translate(184,135.8125)"/>
<path d="M0 0 C0.99 0.33 1.98 0.66 3 1 C-0.3 4.3 -3.6 7.6 -7 11 C-7.33 10.01 -7.66 9.02 -8 8 C-5.36 5.36 -2.72 2.72 0 0 Z " fill="#CED5DD" transform="translate(89,108)"/>
<path d="M0 0 C0.56203125 0.30679688 1.1240625 0.61359375 1.703125 0.9296875 C4.06346934 2.02957585 6.20465562 2.60095851 8.75 3.125 C9.54921875 3.29257813 10.3484375 3.46015625 11.171875 3.6328125 C11.77515625 3.75398437 12.3784375 3.87515625 13 4 C13 4.33 13 4.66 13 5 C11.20866022 5.05391993 9.41686101 5.09275571 7.625 5.125 C6.62726563 5.14820313 5.62953125 5.17140625 4.6015625 5.1953125 C2 5 2 5 0 3 C0 2.01 0 1.02 0 0 Z " fill="#152D5E" transform="translate(121,214)"/>
<path d="M0 0 C2.64 0 5.28 0 8 0 C6.35 1.65 4.7 3.3 3 5 C3 3.68 3 2.36 3 1 C2.01 0.67 1.02 0.34 0 0 Z " fill="#24D7E1" transform="translate(317,179)"/>
<path d="M0 0 C0.99 0.33 1.98 0.66 3 1 C-0.465 3.97 -0.465 3.97 -4 7 C-3.04065919 3.16263678 -2.76390737 2.40339772 0 0 Z " fill="#CDD5DD" transform="translate(65,132)"/>
<path d="M0 0 C0.33 0.99 0.66 1.98 1 3 C-0.32 4.32 -1.64 5.64 -3 7 C-3.99 6.67 -4.98 6.34 -6 6 C-4.02 4.02 -2.04 2.04 0 0 Z " fill="#DCE2E7" transform="translate(96,101)"/>
<path d="M0 0 C2.375 0.3125 2.375 0.3125 5 1 C5.66 1.99 6.32 2.98 7 4 C5.68 4 4.36 4 3 4 C1.25 2 1.25 2 0 0 Z " fill="#DB246C" transform="translate(67,219)"/>
<path d="M0 0 C0 3 0 3 -1.3125 4.38671875 C-2.875 5.59114583 -4.4375 6.79557292 -6 8 C-6 7.01 -6 6.02 -6 5 C-5.34 5 -4.68 5 -4 5 C-3.67 4.01 -3.34 3.02 -3 2 C-2.01 1.34 -1.02 0.68 0 0 Z " fill="#F9FAFA" transform="translate(39,158)"/>
<path d="" fill="#FCFDFD" transform="translate(0,0)"/>
</svg>
